<svg width="17" height="24" viewBox="0 0 17 24" fill="none" xmlns="http://www.w3.org/2000/svg">
<path d="M12.5044 11.6203H4.16814V14.5253H12.5044V11.6203ZM16.3686 4.76613L12.118 0.317742C11.9226 0.113479 11.6578 0 11.3799 0H11.115V5.81013H16.6726V5.53324C16.6726 5.24728 16.564 4.97039 16.3686 4.76613ZM9.72566 6.17327V0H1.04204C0.464574 0 0 0.485691 0 1.0894V22.1511C0 22.7548 0.464574 23.2405 1.04204 23.2405H15.6305C16.208 23.2405 16.6726 22.7548 16.6726 22.1511V7.26267H10.7677C10.1946 7.26267 9.72566 6.77244 9.72566 6.17327ZM2.77876 3.2682C2.77876 3.06757 2.9342 2.90507 3.12611 2.90507H6.59956C6.79146 2.90507 6.9469 3.06757 6.9469 3.2682V3.99447C6.9469 4.1951 6.79146 4.3576 6.59956 4.3576H3.12611C2.9342 4.3576 2.77876 4.1951 2.77876 3.99447V3.2682ZM2.77876 6.17327C2.77876 5.97264 2.9342 5.81013 3.12611 5.81013H6.59956C6.79146 5.81013 6.9469 5.97264 6.9469 6.17327V6.89953C6.9469 7.10017 6.79146 7.26267 6.59956 7.26267H3.12611C2.9342 7.26267 2.77876 7.10017 2.77876 6.89953V6.17327ZM13.8938 19.9723C13.8938 20.173 13.7384 20.3355 13.5465 20.3355H10.073C9.8811 20.3355 9.72566 20.173 9.72566 19.9723V19.2461C9.72566 19.0454 9.8811 18.8829 10.073 18.8829H13.5465C13.7384 18.8829 13.8938 19.0454 13.8938 19.2461V19.9723ZM13.8938 10.894V15.2516C13.8938 15.6529 13.5829 15.9779 13.1991 15.9779H3.47345C3.08963 15.9779 2.77876 15.6529 2.77876 15.2516V10.894C2.77876 10.4927 3.08963 10.1677 3.47345 10.1677H13.1991C13.5829 10.1677 13.8938 10.4927 13.8938 10.894Z" fill="white"/>
</svg>
